<?xml version="1.0" encoding="UTF-8"?>
<!DOCTYPE svg PUBLIC "-//W3C//DTD SVG 1.1//EN" "http://www.w3.org/Graphics/SVG/1.1/DTD/svg11.dtd">
<!-- Creator: CorelDRAW 2018 (64 Bit) -->
<?xml-stylesheet href="banner nosotros.css" type="text/css"?>
<svg xmlns="http://www.w3.org/2000/svg" preserveAspectRatio="none" width="476.067mm" height="171.945mm" version="1.1" style="shape-rendering:geometricPrecision; text-rendering:geometricPrecision; image-rendering:optimizeQuality; fill-rule:evenodd; clip-rule:evenodd"
viewBox="0 0 44940.59 16231.51"
 xmlns:xlink="http://www.w3.org/1999/xlink">
 <g id="Capa_x0020_1">
  <metadata id="CorelCorpID_0Corel-Layer"/>
  <path fill="#3E5974" d="M21431.31 12966.8c1330.67,-597.22 2892.15,-1127.03 4282.12,-110.28 -1757.87,-4163.13 -2492.6,-5996.02 -1949.78,-8941.52 378.07,-2051.46 1358.69,-3370.94 1885.43,-3905.56l-25639.64 0 0 12758.58c1327.47,-442.68 4844.59,-325.39 10098.46,687.98 2758.55,532.06 5982.95,1459.66 9491.29,2087.22 -20,-714.36 596.88,-2022.03 1832.13,-2576.42z"/>
  <path fill="#FF5C35" d="M25713.43 12856.52c-1389.97,-1016.75 -2951.45,-486.94 -4282.12,110.28 -1235.25,554.39 -1852.13,1862.06 -1832.13,2576.42 2021.12,361.52 4136.47,623.47 6311.28,652.84 869.66,36.86 1780.51,33.79 2716.39,-3.39 -642.34,-1020.96 -1917.3,-2536.31 -2913.42,-3336.15z"/>
  <path fill="none" d="M9.44 9.44l44921.71 0c0,5417.83 0,7593.64 0,13011.47 -4532.53,1671.38 -12822.65,3437.89 -19020.69,3175.15 -5949.92,-80.35 -11454.86,-1901.49 -15802.57,-2740.06 -5253.87,-1013.36 -8770.99,-1130.65 -10098.46,-687.98l0 -12758.58z"/>
 </g>
</svg>
