<?xml version="1.0" encoding="UTF-8"?>
<!DOCTYPE svg PUBLIC "-//W3C//DTD SVG 1.1//EN" "http://www.w3.org/Graphics/SVG/1.1/DTD/svg11.dtd">
<!-- Creator: CorelDRAW 2018 (64 Bit) -->
<?xml-stylesheet href="logo marpa.css" type="text/css"?>
<svg xmlns="http://www.w3.org/2000/svg" xml:space="preserve" width="74.7156mm" height="12.6113mm" version="1.1" style="shape-rendering:geometricPrecision; text-rendering:geometricPrecision; image-rendering:optimizeQuality; fill-rule:evenodd; clip-rule:evenodd"
viewBox="0 0 2167.87 365.92"
 xmlns:xlink="http://www.w3.org/1999/xlink">
 <g id="Capa_x0020_1">
  <metadata id="CorelCorpID_0Corel-Layer"/>
  <path class="fil0" d="M438.11 0c-0.89,0 -1.74,0.15 -2.64,0.15 -0.92,0 -1.77,-0.15 -2.67,-0.15 -48.33,0 -94.1,17.76 -126.68,49.25 -32.5,-31.49 -78.29,-49.25 -126.64,-49.25 -0.89,0 -1.72,0.15 -2.67,0.15 -0.91,0 -1.74,-0.15 -2.7,-0.15 -89.5,0 -170.78,60.53 -174.11,157.55l0 208.34 95.42 0 0 -57.89 0 -150.45c0.1,-0.69 0.25,-1.31 0.37,-1.98 4.08,-41.04 38.69,-73.14 80.79,-73.14l0.23 0 0.24 0c42.09,0 76.74,32.1 80.8,73.14 0.11,0.68 0.31,1.29 0.41,1.98l0 150.45 0 57.89 0.4 0 94.94 0 0.42 0 0 -57.89 0 -150.45c0.08,-0.69 0.26,-1.31 0.4,-1.98 4.05,-41.04 38.72,-73.14 80.79,-73.14l0.24 0 0.2 0c42.13,0 76.78,32.1 80.8,73.14 0.16,0.68 0.33,1.29 0.44,1.98l0 150.45 0 57.89 95.36 0 0 -208.34c-3.32,-97.01 -84.62,-157.55 -174.17,-157.55z"/>
  <path class="fil0" d="M836.55 0c-0.92,0 -1.75,0.15 -2.64,0.15 -0.87,0 -1.77,-0.15 -2.69,-0.15 -89.54,0 -170.81,60.53 -174.13,157.55l0 208.34 95.39 0 0 -57.89 0 -150.45c0.08,-0.69 0.26,-1.31 0.39,-1.98 4.13,-41.04 38.75,-73.14 80.82,-73.14l0.23 0 0.2 0c42.12,0 76.72,32.1 80.76,73.14 0.17,0.68 0.36,1.29 0.46,1.98l0 150.45 0 57.89 95.36 0 0 -208.34c-3.33,-97.01 -84.6,-157.55 -174.14,-157.55z"/>
  <path class="fil0" d="M1230.67 0c-89.56,0 -170.82,60.53 -174.14,157.55l0 208.34 95.36 0 0 -208.34c0.12,-0.69 0.25,-1.31 0.4,-1.98 4.08,-41.04 38.67,-73.14 80.8,-73.14 44.86,0 81.22,36.34 81.22,81.25 0,44.83 -36.36,81.22 -81.22,81.22 -2.08,0 -4.13,0.19 -6.19,0.04l-36.14 0 0 82.7 38.5 38.29 125.55 0 -52.02 -52.11c146.65,-62.14 122.58,-313.81 -72.12,-313.81z"/>
  <path class="fil0" d="M891.81 160.17c0,30.81 -24.98,55.73 -55.75,55.73 -30.78,0 -55.71,-24.92 -55.71,-55.73 0,-30.81 24.94,-55.74 55.71,-55.74 30.77,0 55.75,24.93 55.75,55.74z"/>
  <path class="fil0" d="M1993.75 0c-0.91,0 -1.77,0.15 -2.64,0.15 -0.96,0 -1.79,-0.15 -2.68,-0.15 -89.56,0 -170.85,60.53 -174.17,157.55l0 208.34 95.36 0 0 -57.89 0 -150.45c0.1,-0.69 0.31,-1.31 0.44,-1.98 4.05,-41.04 38.67,-73.14 80.75,-73.14l0.3 0 0.2 0c42.12,0 76.72,32.1 80.8,73.14 0.16,0.68 0.29,1.29 0.39,1.98l0 150.45 0 57.89 95.37 0 0 -208.34c-3.29,-97.01 -84.56,-157.55 -174.12,-157.55z"/>
  <path class="fil0" d="M2046.03 164.24c0,30.81 -24.92,55.73 -55.72,55.73 -30.78,0 -55.71,-24.92 -55.71,-55.73 0,-30.81 24.94,-55.74 55.71,-55.74 30.81,0 55.72,24.93 55.72,55.74z"/>
  <path class="fil0" d="M1610.06 0c-89.5,0 -170.83,60.53 -174.14,157.55l0 208.34 95.37 0 0 -208.34c0.11,-0.69 0.24,-1.31 0.43,-1.98 4.03,-41.04 38.64,-73.14 80.77,-73.14 44.89,0 81.22,36.34 81.22,81.25 0,44.83 -36.33,81.22 -81.22,81.22 -2.1,0 -4.13,0.19 -6.24,0.04l-36.08 0 0 82.7 39.88 0c222.2,0 222.2,-327.63 0,-327.63z"/>
 </g>
</svg>
